#!OML:ASF H:\Dans Jumps\Project 1\Capture day 1\Session 1\subject.ASF
:FULLY-SPECIFIED
:DEGREES
471
root 0.22316 18.0473 -5.13964 22.3887 1.91477 -1.62099
lowerback 8.0563 0.900219 -1.97822
upperback 6.17365 1.0669 1.54222
thorax 1.81197 0.43979 2.63524
lowerneck -14.1628 -0.913452 0.148896
upperneck 24.7565 -1.42858 0.472892
head 10.2383 -0.578219 -0.0404039
rclavicle 4.07509e-015 -7.55382e-015
rhumerus -36.8971 -3.88658 -79.4985
rradius 39.7523
rwrist 21.6175
rhand -28.3896 -31.7196
rfingers 7.12502
rthumb -1.76215 -61.6921
lclavicle 4.07509e-015 -7.55382e-015
lhumerus -48.4645 -13.647 92.3859
lradius 38.3697
lwrist 29.826
lhand -25.0229 -2.41927
lfingers 7.12502
lthumb 1.48944 27.5553
rfemur -29.9986 -4.17987 21.4602
rtibia 21.8642
rfoot -9.70478 -4.42379
rtoes 17.7169
lfemur -31.1162 5.61504 -19.2482
ltibia 22.8967
lfoot -7.65518 0.49867
ltoes 4.89045
472
root 0.224695 18.0471 -5.12339 22.3919 1.91616 -1.57677
lowerback 7.90589 0.884747 -1.95813
upperback 6.1517 1.05005 1.53247
thorax 1.87324 0.431683 2.61673
lowerneck -14.1392 -0.896506 0.138002
upperneck 24.7777 -1.40077 0.467201
head 10.2414 -0.567156 -0.0369252
rclavicle -1.49089e-015 -1.03368e-014
rhumerus -36.929 -3.84059 -79.4901
rradius 39.7294
rwrist 21.5331
rhand -28.3764 -31.7153
rfingers 7.12502
rthumb -1.74948 -61.6878
lclavicle -1.49089e-015 -1.03368e-014
lhumerus -48.283 -13.4657 92.2615
lradius 38.3841
lwrist 29.7927
lhand -25.14 -2.47379
lfingers 7.12502
lthumb 1.37633 27.5015
rfemur -29.8941 -4.19381 21.4258
rtibia 21.7811
rfoot -9.74823 -4.51486
rtoes 17.7822
lfemur -30.915 5.5724 -19.2834
ltibia 22.6322
lfoot -7.7021 0.52661
ltoes 5.08904
473
root 0.226569 18.0463 -5.10734 22.3938 1.90806 -1.53657
lowerback 7.75168 0.872804 -1.93532
upperback 6.12595 1.03796 1.52556
thorax 1.93241 0.426047 2.59929
lowerneck -14.1062 -0.878469 0.130722
upperneck 24.7971 -1.3699 0.45248
head 10.2419 -0.55544 -0.036804
rclavicle -1.98785e-016 -5.36719e-015
rhumerus -36.9647 -3.77289 -79.4915
rradius 39.7142
rwrist 21.4728
rhand -28.3683 -31.7021
rfingers 7.12502
rthumb -1.74158 -61.6747
lclavicle -1.98785e-016 -5.36719e-015
lhumerus -48.1065 -13.2732 92.1374
lradius 38.4649
lwrist 29.8195
lhand -25.3206 -2.59029
lfingers 7.12502
lthumb 1.20189 27.3861
rfemur -29.7976 -4.20495 21.3881
rtibia 21.7132
rfoot -9.80212 -4.5801
rtoes 17.8568
lfemur -30.7136 5.53868 -19.3205
ltibia 22.3735
lfoot -7.75269 0.564978
ltoes 5.2704
474
root 0.228861 18.045 -5.09177 22.3901 1.88826 -1.50362
lowerback 7.60337 0.86508 -1.90878
upperback 6.09672 1.03142 1.52278
thorax 1.9844 0.423338 2.58356
lowerneck -14.0677 -0.860842 0.117339
upperneck 24.8169 -1.33821 0.438413
head 10.2415 -0.543854 -0.0352898
rclavicle -6.95746e-015 -1.11319e-014
rhumerus -37.0013 -3.68927 -79.4983
rradius 39.7059
rwrist 21.4371
rhand -28.3646 -31.6805
rfingers 7.12502
rthumb -1.73806 -61.6531
lclavicle -6.95746e-015 -1.11319e-014
lhumerus -47.9348 -13.0693 92.0165
lradius 38.6091
lwrist 29.9059
lhand -25.5477 -2.75391
lfingers 7.12502
lthumb 0.982621 27.2236
rfemur -29.6982 -4.21021 21.3491
rtibia 21.6471
rfoot -9.86292 -4.61749
rtoes 17.9498
lfemur -30.5152 5.52273 -19.3601
ltibia 22.1326
lfoot -7.80342 0.612114
ltoes 5.43651
475
root 0.231565 18.0436 -5.07666 22.3734 1.86083 -1.48209
lowerback 7.46594 0.860244 -1.87326
upperback 6.06802 1.02884 1.52482
thorax 2.03081 0.422865 2.56738
lowerneck -14.0455 -0.842779 0.111717
upperneck 24.8524 -1.30504 0.412761
head 10.2498 -0.532091 -0.0391167
rclavicle 6.95746e-015 1.41137e-014
rhumerus -37.0353 -3.5957 -79.5101
rradius 39.7073
rwrist 21.4257
rhand -28.3599 -31.6519
rfingers 7.12502
rthumb -1.73347 -61.6246
lclavicle 6.95746e-015 1.41137e-014
lhumerus -47.7655 -12.8587 91.9005
lradius 38.8115
lwrist 30.0477
lhand -25.7958 -2.94948
lfingers 7.12502
lthumb 0.742925 27.029
rfemur -29.581 -4.21155 21.3142
rtibia 21.5716
rfoot -9.92687 -4.62931
rtoes 18.0401
lfemur -30.3179 5.52635 -19.3976
ltibia 21.9201
lfoot -7.85218 0.665556
ltoes 5.57365
476
root 0.234503 18.0421 -5.06252 22.3462 1.82075 -1.46945
lowerback 7.33964 0.858557 -1.83567
upperback 6.04049 1.03021 1.52986
thorax 2.0721 0.424412 2.55278
lowerneck -14.0208 -0.82518 0.102007
upperneck 24.8818 -1.2724 0.390703
head 10.2555 -0.520588 -0.0410272
rclavicle 2.28602e-015 -1.49089e-014
rhumerus -37.0595 -3.49809 -79.5271
rradius 39.7124
rwrist 21.4366
rhand -28.3621 -31.6134
rfingers 7.12502
rthumb -1.73566 -61.5861
lclavicle 2.28602e-015 -1.49089e-014
lhumerus -47.5974 -12.6456 91.7901
lradius 39.0686
lwrist 30.2373
lhand -26.062 -3.19422
lfingers 7.12502
lthumb 0.485881 26.785
rfemur -29.4486 -4.20232 21.2801
rtibia 21.4816
rfoot -9.98681 -4.6226
rtoes 18.1046
lfemur -30.1294 5.54865 -19.4349
ltibia 21.742
lfoot -7.89553 0.725814
ltoes 5.69037
477
root 0.237487 18.0408 -5.04947 22.306 1.77051 -1.46353
lowerback 7.22699 0.859591 -1.79712
upperback 6.01601 1.0349 1.53574
thorax 2.10888 0.427651 2.53819
lowerneck -13.9964 -0.807929 0.0943772
upperneck 24.9069 -1.24052 0.367745
head 10.2597 -0.509378 -0.0437054
rclavicle 5.76476e-015 5.76476e-015
rhumerus -37.074 -3.40418 -79.551
rradius 39.7285
rwrist 21.4602
rhand -28.3628 -31.5785
rfingers 7.12502
rthumb -1.73634 -61.5512
lclavicle 5.76476e-015 5.76476e-015
lhumerus -47.4294 -12.4409 91.6865
lradius 39.3748
lwrist 30.4687
lhand -26.3465 -3.46956
lfingers 7.12502
lthumb 0.211079 26.5101
rfemur -29.2995 -4.183 21.2462
rtibia 21.379
rfoot -10.0433 -4.60447
rtoes 18.1503
lfemur -29.9482 5.58392 -19.4704
ltibia 21.5997
lfoot -7.93461 0.789749
ltoes 5.78533
478
root 0.240233 18.0396 -5.03763 22.2556 1.71247 -1.46132
lowerback 7.12417 0.861769 -1.76033
upperback 5.99521 1.04079 1.54014
thorax 2.14407 0.431442 2.52292
lowerneck -13.9705 -0.792311 0.0852937
upperneck 24.9246 -1.21244 0.352009
head 10.261 -0.499255 -0.0440534
rclavicle 4.77083e-015 1.49089e-014
rhumerus -37.0775 -3.32339 -79.5836
rradius 39.7517
rwrist 21.4924
rhand -28.3595 -31.5488
rfingers 7.12502
rthumb -1.73307 -61.5215
lclavicle 4.77083e-015 1.49089e-014
lhumerus -47.2583 -12.2421 91.5837
lradius 39.7211
lwrist 30.7376
lhand -26.6364 -3.75346
lfingers 7.12502
lthumb -0.0689202 26.2263
rfemur -29.1412 -4.15487 21.2126
rtibia 21.2714
rfoot -10.0957 -4.58228
rtoes 18.1853
lfemur -29.7753 5.6201 -19.5005
ltibia 21.4889
lfoot -7.96772 0.859727
ltoes 5.87313
479
root 0.242492 18.0385 -5.02714 22.1947 1.65123 -1.45544
lowerback 7.03359 0.862884 -1.73197
upperback 5.97914 1.04467 1.54165
thorax 2.1775 0.433992 2.50942
lowerneck -13.9515 -0.776232 0.0825962
upperneck 24.9439 -1.18537 0.336186
head 10.2642 -0.489007 -0.0456904
rclavicle 9.93923e-016 -5.1684e-015
rhumerus -37.0598 -3.26369 -79.6254
rradius 39.7733
rwrist 21.5266
rhand -28.3606 -31.5223
rfingers 7.12502
rthumb -1.73419 -61.495
lclavicle 9.93923e-016 -5.1684e-015
lhumerus -47.0785 -12.0555 91.4833
lradius 40.0973
lwrist 31.0442
lhand -26.9503 -4.05039
lfingers 7.12502
lthumb -0.372126 25.929
rfemur -28.9786 -4.12361 21.1753
rtibia 21.1681
rfoot -10.1465 -4.56342
rtoes 18.2115
lfemur -29.6075 5.64942 -19.529
ltibia 21.4018
lfoot -7.99532 0.931419
ltoes 5.93166
480
root 0.244117 18.0375 -5.01777 22.1219 1.59302 -1.44117
lowerback 6.95431 0.860997 -1.71487
upperback 5.9679 1.04392 1.54
thorax 2.20991 0.433897 2.49913
lowerneck -13.9415 -0.760262 0.0875792
upperneck 24.9736 -1.15972 0.317372
head 10.2728 -0.478982 -0.0499381
rclavicle -8.94531e-016 7.95139e-015
rhumerus -37.0234 -3.22994 -79.675
rradius 39.7923
rwrist 21.5545
rhand -28.362 -31.4969
rfingers 7.12502
rthumb -1.73556 -61.4695
lclavicle -8.94531e-016 7.95139e-015
lhumerus -46.893 -11.8843 91.3875
lradius 40.5008
lwrist 31.3925
lhand -27.2877 -4.34592
lfingers 7.12502
lthumb -0.697965 25.6327
rfemur -28.8131 -4.09701 21.1332
rtibia 21.078
rfoot -10.1991 -4.55103
rtoes 18.2389
lfemur -29.4387 5.66328 -19.5566
ltibia 21.3305
lfoot -8.0172 1.00234
ltoes 5.97181
481
root 0.245023 18.0366 -5.00923 22.0373 1.53955 -1.41675
lowerback 6.8836 0.855518 -1.71089
upperback 5.96329 1.03772 1.53551
thorax 2.24469 0.430632 2.49351
lowerneck -13.9321 -0.743438 0.0967808
upperneck 25.003 -1.13378 0.297923
head 10.2815 -0.468521 -0.0550971
rclavicle -6.06293e-015 -5.36719e-015
rhumerus -36.967 -3.22301 -79.732
rradius 39.809
rwrist 21.5698
rhand -28.3558 -31.4871
rfingers 7.12502
rthumb -1.72954 -61.4599
lclavicle -6.06293e-015 -5.36719e-015
lhumerus -46.6961 -11.7317 91.2977
lradius 40.9242
lwrist 31.7814
lhand -27.642 -4.6335
lfingers 7.12502
lthumb -1.0401 25.3437
rfemur -28.6474 -4.07753 21.0854
rtibia 21.008
rfoot -10.2543 -4.54691
rtoes 18.2674
lfemur -29.264 5.65989 -19.5836
ltibia 21.2674
lfoot -8.03509 1.07057
ltoes 5.9876
482
root 0.245156 18.0357 -5.00131 21.9438 1.49209 -1.38413
lowerback 6.81788 0.846976 -1.71976
upperback 5.96311 1.02686 1.53055
thorax 2.28145 0.424563 2.49483
lowerneck -13.9204 -0.727352 0.105817
upperneck 25.0365 -1.10896 0.278945
head 10.2911 -0.458529 -0.0602064
rclavicle 5.26779e-015 -9.54166e-015
rhumerus -36.89 -3.23617 -79.7952
rradius 39.815
rwrist 21.5618
rhand -28.3534 -31.4823
rfingers 7.12502
rthumb -1.72727 -61.4551
lclavicle 5.26779e-015 -9.54166e-015
lhumerus -46.4878 -11.6038 91.219
lradius 41.3599
lwrist 32.2075
lhand -28.0125 -4.95654
lfingers 7.12502
lthumb -1.39798 25.0186
rfemur -28.486 -4.06645 21.0351
rtibia 20.961
rfoot -10.3118 -4.55028
rtoes 18.2991
lfemur -29.0851 5.64262 -19.609
ltibia 21.2093
lfoot -8.05204 1.13188
ltoes 5.99331
483
root 0.244588 18.0347 -4.99392 21.8424 1.45206 -1.34401
lowerback 6.75858 0.834961 -1.74021
upperback 5.96544 1.01084 1.52623
thorax 2.31742 0.415514 2.50351
lowerneck -13.9168 -0.710195 0.119176
upperneck 25.0888 -1.08167 0.251702
head 10.3092 -0.447875 -0.0687378
rclavicle 2.28602e-015 9.93923e-016
rhumerus -36.7942 -3.25906 -79.8655
rradius 39.8102
rwrist 21.5299
rhand -28.3512 -31.4805
rfingers 7.12502
rthumb -1.72512 -61.4533
lclavicle 2.28602e-015 9.93923e-016
lhumerus -46.2669 -11.5015 91.1538
lradius 41.799
lwrist 32.6565
lhand -28.372 -5.26865
lfingers 7.12502
lthumb -1.74515 24.704
rfemur -28.3299 -4.06389 20.9828
rtibia 20.9371
rfoot -10.3697 -4.56069
rtoes 18.3217
lfemur -28.9033 5.61041 -19.6317
ltibia 21.1566
lfoot -8.06918 1.18773
ltoes 5.98851
484
root 0.243349 18.0335 -4.98717 21.7386 1.41657 -1.30398
lowerback 6.70231 0.822044 -1.76638
upperback 5.96788 0.993358 1.52384
thorax 2.35185 0.405519 2.5174
lowerneck -13.8806 -0.696295 0.113752
upperneck 25.12 -1.05891 0.243197
head 10.3135 -0.439025 -0.0678404
rclavicle 3.47873e-015 1.39149e-015
rhumerus -36.6887 -3.28466 -79.9433
rradius 39.8023
rwrist 21.479
rhand -28.3524 -31.4738
rfingers 7.12502
rthumb -1.72622 -61.4466
lclavicle 3.47873e-015 1.39149e-015
lhumerus -46.0337 -11.4235 91.0992
lradius 42.2365
lwrist 33.1034
lhand -28.7095 -5.59931
lfingers 7.12502
lthumb -2.07113 24.3704
rfemur -28.1853 -4.06197 20.9349
rtibia 20.9338
rfoot -10.4231 -4.57888
rtoes 18.3242
lfemur -28.7264 5.56539 -19.6447
ltibia 21.1115
lfoot -8.08567 1.24274
ltoes 5.98692
